#define kehops_92x96_width 92
#define kehops_92x96_height 96
static unsigned char kehops_92x96_bits[] = {
   0x00, 0x00, 0x00, 0x00, 0x80, 0xff, 0x1f, 0x00, 0x00, 0x00, 0x00, 0x00,
   0x00, 0x00, 0x00, 0x00, 0xfc, 0xff, 0xff, 0x03, 0x00, 0x00, 0x00, 0x00,
   0x00, 0x00, 0x00, 0xc0, 0x7f, 0x00, 0xe0, 0x3f, 0x00, 0x00, 0x00, 0x00,
   0x00, 0x00, 0x00, 0xf0, 0x03, 0x00, 0x00, 0xf8, 0x01, 0x00, 0x00, 0x00,
   0x00, 0x00, 0x00, 0x3e, 0x00, 0x00, 0x00, 0xc0, 0x07, 0x00, 0x00, 0x00,
   0x00, 0x00, 0x80, 0x0f, 0x80, 0xff, 0x3f, 0x00, 0x1e, 0x00, 0x00, 0x00,
   0x00, 0x00, 0xc0, 0x01, 0xfc, 0xff, 0xff, 0x03, 0x38, 0x00, 0x00, 0x00,
   0x00, 0x00, 0x60, 0x80, 0x3f, 0x00, 0xc0, 0x3f, 0x60, 0x00, 0x00, 0x00,
   0x00, 0x00, 0x20, 0xf0, 0x03, 0x00, 0x00, 0xf8, 0x40, 0x00, 0x00, 0x00,
   0x00, 0x00, 0x20, 0x3c, 0xc0, 0xff, 0x3f, 0xc0, 0x47, 0x00, 0x00, 0x00,
   0x00, 0x00, 0xe0, 0x0f, 0xfe, 0xff, 0xff, 0x07, 0x7f, 0x00, 0x00, 0x00,
   0x00, 0x00, 0xc0, 0xc3, 0x3f, 0x00, 0x80, 0x3f, 0x3c, 0x00, 0x00, 0x00,
   0x00, 0x00, 0x00, 0xf0, 0x01, 0x00, 0x00, 0xf8, 0x01, 0x00, 0x00, 0x00,
   0x00, 0x00, 0x00, 0x38, 0x00, 0x00, 0x00, 0xc0, 0x01, 0x00, 0x00, 0x00,
   0x00, 0x00, 0x00, 0x08, 0xc0, 0xff, 0x7f, 0x00, 0x03, 0x00, 0x00, 0x00,
   0x00, 0x00, 0x00, 0x0c, 0xfe, 0xff, 0xff, 0x07, 0x03, 0x00, 0x00, 0x00,
   0x00, 0x00, 0x00, 0xd8, 0x1f, 0x00, 0x80, 0x3f, 0x03, 0x00, 0x00, 0x00,
   0x00, 0x00, 0x00, 0xf8, 0x01, 0x00, 0x00, 0xf8, 0x01, 0x00, 0x00, 0x00,
   0x00, 0x00, 0x00, 0x30, 0xe0, 0xff, 0x7f, 0xc0, 0x00, 0x00, 0x00, 0x00,
   0x00, 0x00, 0x00, 0x00, 0xfc, 0xff, 0xff, 0x03, 0x00, 0x00, 0x00, 0x00,
   0x00, 0x00, 0x00, 0x00, 0x1e, 0x00, 0x80, 0x07, 0x00, 0x00, 0x00, 0x00,
   0x00, 0x00, 0x00, 0x00, 0x06, 0x00, 0x00, 0x04, 0x00, 0x00, 0x00, 0x00,
   0x00, 0x00, 0x00, 0x00, 0x02, 0x00, 0x00, 0x04, 0x00, 0x00, 0x00, 0x00,
   0x00, 0xc0, 0x03, 0x00, 0xe6, 0xff, 0x7f, 0x06, 0x00, 0x3c, 0x00, 0x00,
   0x00, 0xf8, 0x07, 0x00, 0xfc, 0x9f, 0xff, 0x07, 0x00, 0xfe, 0x01, 0x00,
   0x00, 0x1e, 0x06, 0x00, 0x08, 0x00, 0x00, 0x01, 0x00, 0x86, 0x07, 0x00,
   0x80, 0x03, 0x07, 0x00, 0x00, 0x00, 0x00, 0x00, 0x00, 0x0e, 0x1c, 0x00,
   0xe0, 0xc0, 0x03, 0x00, 0x00, 0x00, 0x00, 0x00, 0x00, 0x3c, 0x70, 0x00,
   0x70, 0x78, 0x00, 0x00, 0x00, 0x00, 0x00, 0x00, 0x00, 0xe0, 0xe1, 0x00,
   0x18, 0x1c, 0x00, 0x00, 0x00, 0xff, 0x0f, 0x00, 0x00, 0x80, 0x83, 0x01,
   0x0e, 0x07, 0x00, 0x00, 0xfe, 0xff, 0xff, 0x07, 0x00, 0x00, 0x0e, 0x07,
   0xc7, 0x01, 0x00, 0xe0, 0x1f, 0x00, 0x80, 0x7f, 0x00, 0x00, 0x38, 0x0e,
   0xe3, 0x00, 0x00, 0xfc, 0x00, 0x00, 0x00, 0xf0, 0x03, 0x00, 0x70, 0x0c,
   0x73, 0x00, 0x80, 0x0f, 0x00, 0x00, 0x00, 0x00, 0x1f, 0x00, 0xe0, 0x0c,
   0x1e, 0x00, 0xe0, 0x01, 0x00, 0x00, 0x00, 0x00, 0x78, 0x00, 0x80, 0x07,
   0x00, 0x00, 0x78, 0x00, 0x00, 0x00, 0x00, 0x00, 0xe0, 0x01, 0x00, 0x00,
   0x00, 0x00, 0x1c, 0x00, 0x00, 0x00, 0x00, 0x00, 0x80, 0x07, 0x00, 0x00,
   0x00, 0x00, 0x07, 0x00, 0xfe, 0x07, 0xfe, 0x07, 0x00, 0x0e, 0x00, 0x00,
   0x00, 0x80, 0x03, 0x00, 0xff, 0x0f, 0xff, 0x0f, 0x00, 0x18, 0x00, 0x00,
   0x00, 0xc0, 0x00, 0x00, 0x01, 0x08, 0x01, 0x08, 0x00, 0x30, 0x00, 0x00,
   0x00, 0x60, 0x00, 0x00, 0x01, 0x08, 0x01, 0x08, 0x00, 0x60, 0x00, 0x00,
   0x00, 0x60, 0x00, 0x00, 0x03, 0x0c, 0x03, 0x0c, 0x00, 0x60, 0x00, 0x00,
   0x00, 0x20, 0x00, 0x00, 0xff, 0x0f, 0xff, 0x0f, 0x00, 0x40, 0x00, 0x00,
   0x00, 0x20, 0x00, 0x00, 0xfc, 0x03, 0xfc, 0x03, 0x00, 0x40, 0x00, 0x00,
   0x00, 0x60, 0x00, 0x00, 0x00, 0x00, 0x00, 0x00, 0x00, 0x60, 0x00, 0x00,
   0x00, 0x60, 0x00, 0x00, 0x00, 0x00, 0x00, 0x00, 0x00, 0x60, 0x00, 0x00,
   0x00, 0xc0, 0x01, 0x00, 0x00, 0x00, 0x00, 0x00, 0x00, 0x38, 0x00, 0x00,
   0x00, 0x80, 0xff, 0xff, 0xff, 0xff, 0xff, 0xff, 0xff, 0x1f, 0x00, 0x00,
   0x00, 0x00, 0x00, 0x00, 0x00, 0x00, 0x00, 0x00, 0x00, 0x00, 0x00, 0x00,
   0x00, 0x00, 0x00, 0x00, 0x00, 0x00, 0x00, 0x00, 0x00, 0x00, 0x00, 0x00,
   0x00, 0x00, 0x00, 0x00, 0x00, 0x00, 0x00, 0x00, 0x00, 0x00, 0x00, 0x00,
   0x00, 0x00, 0xfe, 0xff, 0xff, 0xff, 0xff, 0xff, 0xff, 0x07, 0x00, 0x00,
   0x00, 0xc0, 0xff, 0xff, 0xff, 0xff, 0xff, 0xff, 0xff, 0x3f, 0x00, 0x00,
   0x00, 0xc0, 0x00, 0x00, 0x00, 0x00, 0x00, 0x00, 0x00, 0x30, 0x00, 0x00,
   0x00, 0x60, 0x00, 0x00, 0x00, 0x00, 0x00, 0x00, 0x00, 0x60, 0x00, 0x00,
   0x00, 0x20, 0x00, 0x00, 0x00, 0x00, 0x00, 0x00, 0x00, 0x40, 0x00, 0x00,
   0x00, 0x20, 0x00, 0x80, 0x03, 0x00, 0x00, 0x1c, 0x00, 0x40, 0x00, 0x00,
   0x00, 0x20, 0x00, 0xc0, 0x07, 0x00, 0x00, 0x3e, 0x00, 0x40, 0x00, 0x00,
   0xfc, 0x20, 0x00, 0x60, 0x0c, 0x00, 0x00, 0x63, 0x00, 0x40, 0xf0, 0x03,
   0xce, 0x21, 0x00, 0x20, 0x08, 0x00, 0x00, 0x41, 0x00, 0x40, 0x38, 0x07,
   0x83, 0x21, 0x00, 0x20, 0x08, 0x00, 0x00, 0x41, 0x00, 0x40, 0x18, 0x0c,
   0x03, 0x21, 0x00, 0x60, 0x0c, 0x00, 0x00, 0x63, 0x00, 0x40, 0x08, 0x0c,
   0x03, 0x23, 0x00, 0xe0, 0x0e, 0x00, 0x00, 0x77, 0x00, 0x40, 0x0c, 0x0c,
   0x03, 0x23, 0x00, 0xc0, 0x07, 0x00, 0x00, 0x3e, 0x00, 0x40, 0x0c, 0x0c,
   0x03, 0x23, 0x00, 0x00, 0x00, 0x00, 0x00, 0x00, 0x00, 0x40, 0x0c, 0x0c,
   0x03, 0x23, 0x00, 0x00, 0x00, 0x00, 0x00, 0x00, 0x00, 0x40, 0x0c, 0x0c,
   0x03, 0x23, 0x00, 0x00, 0x00, 0x00, 0x00, 0x00, 0x00, 0x40, 0x0c, 0x0c,
   0x03, 0x23, 0x00, 0x00, 0x00, 0x00, 0x00, 0x00, 0x00, 0x40, 0x0c, 0x0c,
   0x03, 0x23, 0x00, 0x00, 0x00, 0x00, 0x00, 0x00, 0x00, 0x40, 0x0c, 0x0c,
   0x03, 0x23, 0x00, 0x00, 0x00, 0x00, 0x00, 0x00, 0x00, 0x40, 0x0c, 0x0c,
   0x03, 0x23, 0x00, 0x00, 0x00, 0x00, 0x00, 0x00, 0x00, 0x40, 0x0c, 0x0c,
   0x03, 0x23, 0x00, 0x00, 0x00, 0x00, 0x00, 0x00, 0x00, 0x40, 0x0c, 0x0c,
   0x03, 0x23, 0x00, 0x00, 0x00, 0x00, 0x00, 0x00, 0x00, 0x40, 0x0c, 0x0c,
   0x03, 0x23, 0x00, 0x00, 0x00, 0x00, 0x00, 0x00, 0x00, 0x40, 0x0c, 0x0c,
   0x03, 0x23, 0x00, 0x00, 0x00, 0x00, 0x00, 0x00, 0x00, 0x40, 0x0c, 0x0c,
   0x03, 0x23, 0x00, 0x00, 0x00, 0x00, 0x00, 0x00, 0x00, 0x40, 0x0c, 0x0c,
   0x03, 0x23, 0x00, 0x00, 0x00, 0x00, 0x00, 0x00, 0x00, 0x40, 0x0c, 0x0c,
   0x03, 0x23, 0x00, 0x00, 0x00, 0x00, 0x00, 0x00, 0x00, 0x40, 0x0c, 0x0c,
   0x03, 0x23, 0x00, 0x00, 0x00, 0x00, 0x00, 0x00, 0x00, 0x40, 0x0c, 0x0c,
   0x03, 0x23, 0x00, 0x00, 0x00, 0x00, 0x00, 0x00, 0x00, 0x40, 0x0c, 0x0c,
   0x03, 0x23, 0x00, 0x00, 0x00, 0x00, 0x00, 0x00, 0x00, 0x40, 0x0c, 0x0c,
   0x03, 0x23, 0x00, 0x00, 0x00, 0x00, 0x00, 0x00, 0x00, 0x40, 0x0c, 0x0c,
   0x03, 0x23, 0x00, 0x00, 0x00, 0x00, 0x00, 0x00, 0x00, 0x40, 0x0c, 0x0c,
   0x03, 0x23, 0x00, 0x00, 0x00, 0x00, 0x00, 0x00, 0x00, 0x40, 0x0c, 0x0c,
   0x03, 0x23, 0x00, 0x00, 0x00, 0x00, 0x00, 0x00, 0x00, 0x40, 0x0c, 0x0c,
   0x03, 0x23, 0x00, 0x00, 0x00, 0x00, 0x00, 0x00, 0x00, 0x40, 0x0c, 0x0c,
   0x03, 0x23, 0x00, 0x00, 0x00, 0x00, 0x00, 0x00, 0x00, 0x40, 0x0c, 0x0c,
   0x03, 0x21, 0x00, 0x00, 0x00, 0x00, 0x00, 0x00, 0x00, 0x40, 0x08, 0x0c,
   0x03, 0x21, 0x00, 0x00, 0x00, 0x00, 0x00, 0x00, 0x00, 0x40, 0x08, 0x0c,
   0xc6, 0x21, 0x00, 0x00, 0x00, 0x00, 0x00, 0x00, 0x00, 0x40, 0x38, 0x06,
   0xfc, 0x20, 0x00, 0x00, 0x00, 0x00, 0x00, 0x00, 0x00, 0x40, 0xf0, 0x03,
   0x00, 0x20, 0x00, 0x00, 0x00, 0x00, 0x00, 0x00, 0x00, 0x40, 0x00, 0x00,
   0x00, 0x60, 0x00, 0x00, 0x00, 0x00, 0x00, 0x00, 0x00, 0x60, 0x00, 0x00,
   0x00, 0x60, 0x00, 0x00, 0x00, 0x00, 0x00, 0x00, 0x00, 0x60, 0x00, 0x00,
   0x00, 0xc0, 0xff, 0xff, 0xff, 0xff, 0xff, 0xff, 0xff, 0x3f, 0x00, 0x00,
   0x00, 0x80, 0xff, 0xff, 0xff, 0xff, 0xff, 0xff, 0xff, 0x1f, 0x00, 0x00 };
