#define kehops_63x64_width 63
#define kehops_63x64_height 64
static unsigned char kehops_63x64_bits[] = {
   0x00, 0x00, 0x00, 0xfc, 0x1f, 0x00, 0x00, 0x00, 0x00, 0x00, 0xc0, 0x03,
   0xe0, 0x01, 0x00, 0x00, 0x00, 0x00, 0x38, 0x00, 0x00, 0x0e, 0x00, 0x00,
   0x00, 0x00, 0x06, 0xf8, 0x0f, 0x30, 0x00, 0x00, 0x00, 0x00, 0x81, 0x0f,
   0xf8, 0x40, 0x00, 0x00, 0x00, 0x80, 0x70, 0x00, 0x00, 0x87, 0x00, 0x00,
   0x00, 0x80, 0x0c, 0xfc, 0x1f, 0x98, 0x00, 0x00, 0x00, 0x00, 0xc3, 0x03,
   0xe0, 0x61, 0x00, 0x00, 0x00, 0x00, 0x38, 0x00, 0x00, 0x0e, 0x00, 0x00,
   0x00, 0x00, 0x08, 0xf8, 0x0f, 0x08, 0x00, 0x00, 0x00, 0x00, 0x84, 0x0f,
   0xf8, 0x10, 0x00, 0x00, 0x00, 0x00, 0x78, 0x00, 0x00, 0x0f, 0x00, 0x00,
   0x00, 0x00, 0x00, 0xfc, 0x1f, 0x00, 0x00, 0x00, 0x00, 0x00, 0x80, 0x03,
   0xe0, 0x00, 0x00, 0x00, 0x00, 0x00, 0x80, 0x00, 0x80, 0x00, 0x00, 0x00,
   0x00, 0x0c, 0x80, 0xf8, 0x8f, 0x00, 0x18, 0x00, 0x00, 0x13, 0x00, 0x07,
   0x70, 0x00, 0x64, 0x00, 0xc0, 0x10, 0x00, 0x00, 0x00, 0x00, 0x84, 0x01,
   0x30, 0x0c, 0x00, 0x00, 0x00, 0x00, 0x18, 0x06, 0x08, 0x03, 0x00, 0x00,
   0x00, 0x00, 0x60, 0x08, 0xc8, 0x00, 0x80, 0xff, 0xff, 0x00, 0x80, 0x09,
   0x30, 0x00, 0x78, 0x00, 0x00, 0x0f, 0x00, 0x06, 0x00, 0x00, 0x07, 0x00,
   0x00, 0x70, 0x00, 0x00, 0x00, 0xc0, 0x00, 0x00, 0x00, 0x80, 0x01, 0x00,
   0x00, 0x30, 0x00, 0x00, 0x00, 0x00, 0x06, 0x00, 0x00, 0x08, 0x80, 0x1f,
   0xfc, 0x00, 0x08, 0x00, 0x00, 0x04, 0x40, 0x20, 0x02, 0x01, 0x10, 0x00,
   0x00, 0x04, 0x40, 0x20, 0x02, 0x01, 0x10, 0x00, 0x00, 0x04, 0x80, 0x1f,
   0xfc, 0x00, 0x10, 0x00, 0x00, 0x04, 0x00, 0x00, 0x00, 0x00, 0x10, 0x00,
   0x00, 0x08, 0x00, 0x00, 0x00, 0x00, 0x08, 0x00, 0x00, 0xf0, 0xff, 0xff,
   0xff, 0xff, 0x07, 0x00, 0x00, 0x00, 0x00, 0x00, 0x00, 0x00, 0x00, 0x00,
   0x00, 0x00, 0x00, 0x00, 0x00, 0x00, 0x00, 0x00, 0x00, 0xf0, 0xff, 0xff,
   0xff, 0xff, 0x07, 0x00, 0x00, 0x08, 0x00, 0x00, 0x00, 0x00, 0x18, 0x00,
   0x00, 0x04, 0x00, 0x00, 0x00, 0x00, 0x10, 0x00, 0x00, 0x02, 0x00, 0x00,
   0x00, 0x00, 0x20, 0x00, 0x00, 0x02, 0xe0, 0x00, 0x80, 0x03, 0x20, 0x00,
   0x18, 0x02, 0x10, 0x01, 0x40, 0x04, 0x20, 0x0c, 0x24, 0x02, 0x10, 0x01,
   0x40, 0x04, 0x20, 0x12, 0x42, 0x02, 0x10, 0x01, 0x40, 0x04, 0x20, 0x21,
   0x42, 0x02, 0xe0, 0x00, 0x80, 0x03, 0x20, 0x21, 0x42, 0x02, 0x00, 0x00,
   0x00, 0x00, 0x20, 0x21, 0x42, 0x02, 0x00, 0x00, 0x00, 0x00, 0x20, 0x21,
   0x42, 0x02, 0x00, 0x00, 0x00, 0x00, 0x20, 0x21, 0x42, 0x02, 0x00, 0x00,
   0x00, 0x00, 0x20, 0x21, 0x42, 0x02, 0x00, 0x00, 0x00, 0x00, 0x20, 0x21,
   0x42, 0x02, 0x00, 0x00, 0x00, 0x00, 0x20, 0x21, 0x42, 0x02, 0x00, 0x00,
   0x00, 0x00, 0x20, 0x21, 0x42, 0x02, 0x00, 0x00, 0x00, 0x00, 0x20, 0x21,
   0x42, 0x02, 0x00, 0x00, 0x00, 0x00, 0x20, 0x21, 0x42, 0x02, 0x00, 0x00,
   0x00, 0x00, 0x20, 0x21, 0x42, 0x02, 0x00, 0x00, 0x00, 0x00, 0x20, 0x21,
   0x42, 0x02, 0x00, 0x00, 0x00, 0x00, 0x20, 0x21, 0x42, 0x02, 0x00, 0x00,
   0x00, 0x00, 0x20, 0x21, 0x42, 0x02, 0x00, 0x00, 0x00, 0x00, 0x20, 0x21,
   0x42, 0x02, 0x00, 0x00, 0x00, 0x00, 0x20, 0x21, 0x42, 0x02, 0x00, 0x00,
   0x00, 0x00, 0x20, 0x21, 0x24, 0x02, 0x00, 0x00, 0x00, 0x00, 0x20, 0x12,
   0x18, 0x02, 0x00, 0x00, 0x00, 0x00, 0x20, 0x0c, 0x00, 0x02, 0x00, 0x00,
   0x00, 0x00, 0x20, 0x00, 0x00, 0x04, 0x00, 0x00, 0x00, 0x00, 0x10, 0x00,
   0x00, 0xf8, 0xff, 0xff, 0xff, 0xff, 0x0f, 0x00 };
