#define logo_name_86_width 86
#define logo_name_86_height 18
static unsigned char logo_name_86_bits[] = {
   0x00, 0x00, 0x00, 0x00, 0x00, 0x00, 0x00, 0x00, 0x00, 0x00, 0x00, 0x00,
   0x00, 0x00, 0x00, 0x00, 0x00, 0x00, 0x00, 0x00, 0x00, 0x00, 0x00, 0x00,
   0x00, 0x00, 0x00, 0x00, 0x00, 0x00, 0x00, 0x00, 0x00, 0x00, 0x00, 0x00,
   0x00, 0x00, 0x00, 0x00, 0x00, 0x00, 0x00, 0x00, 0x00, 0x00, 0x00, 0x00,
   0x00, 0x00, 0x00, 0x00, 0x00, 0x00, 0x00, 0x00, 0x02, 0xc4, 0x7f, 0x01,
   0xe2, 0x1f, 0xfe, 0xf0, 0x1f, 0x00, 0x00, 0x06, 0xe6, 0x7f, 0x03, 0xfa,
   0xbf, 0xff, 0xf9, 0x1f, 0x00, 0x00, 0x06, 0x27, 0x00, 0x03, 0x12, 0xb0,
   0x01, 0x0b, 0x00, 0x00, 0x00, 0xfe, 0xf1, 0x1f, 0xff, 0x1b, 0xb0, 0xfe,
   0xfd, 0x0f, 0x00, 0x00, 0xfe, 0xe1, 0x1f, 0xff, 0x13, 0xb0, 0xfe, 0xf8,
   0x1f, 0x00, 0x00, 0x06, 0x33, 0x00, 0x03, 0x16, 0xb0, 0x00, 0x00, 0x18,
   0x00, 0x00, 0x06, 0xe6, 0x7f, 0x03, 0xf6, 0xbf, 0x01, 0xf8, 0x1f, 0x00,
   0x00, 0x02, 0xe4, 0x7f, 0x01, 0xf2, 0x9f, 0x00, 0xf8, 0x0f, 0x00, 0x00,
   0x00, 0x00, 0x00, 0x00, 0x00, 0x00, 0x00, 0x00, 0x00, 0x00, 0x00, 0x00,
   0x00, 0x00, 0x00, 0x00, 0x00, 0x00, 0x00, 0x00, 0x00, 0x00, 0x00, 0x00,
   0x00, 0x00, 0x00, 0x00, 0x00, 0x00, 0x00, 0x00, 0x00, 0x00, 0x00, 0x00,
   0x00, 0x00, 0x00, 0x00, 0x00, 0x00, 0x00, 0x00, 0x00, 0x00, 0x00, 0x00,
   0x00, 0x00, 0x00, 0x00, 0x00, 0x00 };
