#define icon_warning_16x16_width 16
#define icon_warning_16x16_height 16
static unsigned char icon_warning_16x16_bits[] = {
   0xe0, 0x07, 0x38, 0x1c, 0x8c, 0x31, 0x46, 0x62, 0x42, 0x42, 0xa3, 0xc5,
   0xa1, 0x85, 0x91, 0x89, 0x11, 0x88, 0x89, 0x91, 0x0b, 0xd0, 0xfa, 0x5f,
   0x06, 0x60, 0x0c, 0x30, 0x38, 0x1c, 0xe0, 0x07 };
