#define icon_info_16x16_width 16
#define icon_info_16x16_height 16
static unsigned char icon_info_16x16_bits[] = {
   0xe0, 0x07, 0x38, 0x1c, 0x0c, 0x30, 0xe6, 0x67, 0x82, 0x41, 0x83, 0xc1,
   0x81, 0x81, 0x81, 0x81, 0x81, 0x81, 0x81, 0x81, 0x83, 0xc1, 0x82, 0x41,
   0xe6, 0x67, 0x0c, 0x30, 0x38, 0x1c, 0xe0, 0x07 };
