#define kehops_ir_r_10x7_0_width 10
#define kehops_ir_r_10x7_0_height 7
static unsigned char kehops_ir_r_10x7_0_bits[] = {
   0x06, 0x00, 0x19, 0x00, 0x61, 0x00, 0x86, 0x01, 0x18, 0x02, 0x60, 0x02,
   0x80, 0x01 };
