#define kehops_ir_l_10x7_1_width 10
#define kehops_ir_l_10x7_1_height 7
static unsigned char kehops_ir_l_10x7_1_bits[] = {
   0x80, 0x01, 0xe0, 0x03, 0xf8, 0x03, 0xfe, 0x01, 0x7f, 0x00, 0x1f, 0x00,
   0x06, 0x00 };
