#define kehops_61x64_WO_sens_width 61
#define kehops_61x64_WO_sens_height 64
static unsigned char kehops_61x64_WO_sens_bits[] = {
   0x00, 0x00, 0x00, 0xfe, 0x0f, 0x00, 0x00, 0x00, 0x00, 0x00, 0xe0, 0x01,
   0xf0, 0x00, 0x00, 0x00, 0x00, 0x00, 0x1c, 0x00, 0x00, 0x07, 0x00, 0x00,
   0x00, 0x00, 0x03, 0xfc, 0x07, 0x18, 0x00, 0x00, 0x00, 0x80, 0xc0, 0x07,
   0x7c, 0x20, 0x00, 0x00, 0x00, 0x40, 0x38, 0x00, 0x80, 0x43, 0x00, 0x00,
   0x00, 0x40, 0x06, 0xfe, 0x0f, 0x4c, 0x00, 0x00, 0x00, 0x80, 0xe1, 0x01,
   0xf0, 0x30, 0x00, 0x00, 0x00, 0x00, 0x1c, 0x00, 0x00, 0x07, 0x00, 0x00,
   0x00, 0x00, 0x04, 0xfc, 0x07, 0x04, 0x00, 0x00, 0x00, 0x00, 0xc2, 0x07,
   0x7c, 0x08, 0x00, 0x00, 0x00, 0x00, 0x3c, 0x00, 0x80, 0x07, 0x00, 0x00,
   0x00, 0x00, 0x00, 0xfe, 0x0f, 0x00, 0x00, 0x00, 0x00, 0x00, 0xc0, 0x01,
   0x70, 0x00, 0x00, 0x00, 0x00, 0x00, 0x40, 0x00, 0x40, 0x00, 0x00, 0x00,
   0x00, 0x06, 0x40, 0xfc, 0x47, 0x00, 0x0c, 0x00, 0x80, 0x09, 0x80, 0x03,
   0x38, 0x00, 0x32, 0x00, 0x60, 0x08, 0x00, 0x00, 0x00, 0x00, 0xc2, 0x00,
   0x18, 0x06, 0x00, 0x00, 0x00, 0x00, 0x0c, 0x03, 0x84, 0x01, 0x00, 0x00,
   0x00, 0x00, 0x30, 0x04, 0x64, 0x00, 0xc0, 0xff, 0x7f, 0x00, 0xc0, 0x04,
   0x18, 0x00, 0x3c, 0x00, 0x80, 0x07, 0x00, 0x03, 0x00, 0x80, 0x03, 0x00,
   0x00, 0x38, 0x00, 0x00, 0x00, 0x60, 0x00, 0x00, 0x00, 0xc0, 0x00, 0x00,
   0x00, 0x18, 0x00, 0x00, 0x00, 0x00, 0x03, 0x00, 0x00, 0x04, 0x00, 0x00,
   0x00, 0x00, 0x04, 0x00, 0x00, 0x02, 0x00, 0x00, 0x00, 0x00, 0x08, 0x00,
   0x00, 0x02, 0x00, 0x00, 0x00, 0x00, 0x08, 0x00, 0x00, 0x02, 0x00, 0x00,
   0x00, 0x00, 0x08, 0x00, 0x00, 0x02, 0x00, 0x00, 0x00, 0x00, 0x08, 0x00,
   0x00, 0x04, 0x00, 0x00, 0x00, 0x00, 0x04, 0x00, 0x00, 0xf8, 0xff, 0xff,
   0xff, 0xff, 0x03, 0x00, 0x00, 0x00, 0x00, 0x00, 0x00, 0x00, 0x00, 0x00,
   0x00, 0x00, 0x00, 0x00, 0x00, 0x00, 0x00, 0x00, 0x00, 0xf8, 0xff, 0xff,
   0xff, 0xff, 0x03, 0x00, 0x00, 0x04, 0x00, 0x00, 0x00, 0x00, 0x04, 0x00,
   0x00, 0x02, 0x00, 0x00, 0x00, 0x00, 0x08, 0x00, 0x00, 0x01, 0x00, 0x00,
   0x00, 0x00, 0x10, 0x00, 0x00, 0x01, 0x00, 0x00, 0x00, 0x00, 0x10, 0x00,
   0x0c, 0x01, 0x00, 0x00, 0x00, 0x00, 0x10, 0x06, 0x12, 0x01, 0x00, 0x00,
   0x00, 0x00, 0x10, 0x09, 0x21, 0x01, 0x00, 0x00, 0x00, 0x00, 0x90, 0x10,
   0x21, 0x01, 0x00, 0x00, 0x00, 0x00, 0x90, 0x10, 0x21, 0x01, 0x00, 0x00,
   0x00, 0x00, 0x90, 0x10, 0x21, 0x01, 0x00, 0x00, 0x00, 0x00, 0x90, 0x10,
   0x21, 0x01, 0x00, 0x00, 0x00, 0x00, 0x90, 0x10, 0x21, 0x01, 0x00, 0x00,
   0x00, 0x00, 0x90, 0x10, 0x21, 0x01, 0x00, 0x00, 0x00, 0x00, 0x90, 0x10,
   0x21, 0x01, 0x00, 0x00, 0x00, 0x00, 0x90, 0x10, 0x21, 0x01, 0x00, 0x00,
   0x00, 0x00, 0x90, 0x10, 0x21, 0x01, 0x00, 0x00, 0x00, 0x00, 0x90, 0x10,
   0x21, 0x01, 0x00, 0x00, 0x00, 0x00, 0x90, 0x10, 0x21, 0x01, 0x00, 0x00,
   0x00, 0x00, 0x90, 0x10, 0x21, 0x01, 0x00, 0x00, 0x00, 0x00, 0x90, 0x10,
   0x21, 0x01, 0x00, 0x00, 0x00, 0x00, 0x90, 0x10, 0x21, 0x01, 0x00, 0x00,
   0x00, 0x00, 0x90, 0x10, 0x21, 0x01, 0x00, 0x00, 0x00, 0x00, 0x90, 0x10,
   0x21, 0x01, 0x00, 0x00, 0x00, 0x00, 0x90, 0x10, 0x21, 0x01, 0x00, 0x00,
   0x00, 0x00, 0x90, 0x10, 0x12, 0x01, 0x00, 0x00, 0x00, 0x00, 0x10, 0x09,
   0x0c, 0x01, 0x00, 0x00, 0x00, 0x00, 0x10, 0x06, 0x00, 0x01, 0x00, 0x00,
   0x00, 0x00, 0x10, 0x00, 0x00, 0x02, 0x00, 0x00, 0x00, 0x00, 0x08, 0x00,
   0x00, 0xfc, 0xff, 0xff, 0xff, 0xff, 0x07, 0x00 };
