#define logo_name_128_width 126
#define logo_name_128_height 26
static unsigned char logo_name_128_bits[] = {
   0x00, 0x00, 0x00, 0x00, 0x00, 0x00, 0x00, 0x00, 0x00, 0x00, 0x00, 0x00,
   0x00, 0x00, 0x00, 0x00, 0x00, 0x00, 0x00, 0x00, 0x00, 0x00, 0x00, 0x00,
   0x00, 0x00, 0x00, 0x00, 0x00, 0x00, 0x00, 0x00, 0x00, 0x00, 0x00, 0x00,
   0x00, 0x00, 0x00, 0x00, 0x00, 0x00, 0x00, 0x00, 0x00, 0x00, 0x00, 0x00,
   0x00, 0x00, 0x00, 0x00, 0x00, 0x00, 0x00, 0x00, 0x00, 0x00, 0x00, 0x00,
   0x00, 0x00, 0x00, 0x00, 0x00, 0x00, 0x00, 0x00, 0x00, 0x00, 0x00, 0x00,
   0x00, 0x00, 0x00, 0x00, 0x00, 0x00, 0x00, 0x00, 0x00, 0x00, 0x00, 0x00,
   0x00, 0x00, 0x00, 0x00, 0x00, 0x00, 0x00, 0x00, 0x00, 0x00, 0x00, 0x00,
   0x00, 0x00, 0x00, 0x00, 0x00, 0x00, 0x00, 0x00, 0x00, 0x00, 0x00, 0x00,
   0x00, 0x00, 0x00, 0x00, 0x00, 0x00, 0x00, 0x00, 0x24, 0x09, 0x00, 0x00,
   0x24, 0x09, 0x48, 0x12, 0x20, 0x49, 0x00, 0x00, 0x00, 0xe0, 0x00, 0x9c,
   0xff, 0xbf, 0x01, 0x30, 0xfe, 0x3f, 0xfc, 0x7f, 0xfc, 0xff, 0x01, 0x00,
   0x00, 0xe0, 0x00, 0xce, 0xff, 0x9f, 0x01, 0x70, 0xff, 0x7f, 0xfe, 0xff,
   0xfc, 0xff, 0x01, 0x00, 0x00, 0xe0, 0x00, 0xcf, 0x01, 0xc0, 0x01, 0x30,
   0x03, 0x70, 0x07, 0xe0, 0x0e, 0x00, 0x00, 0x00, 0x00, 0xe0, 0x80, 0xc3,
   0x25, 0x81, 0x03, 0x74, 0x07, 0x60, 0xa6, 0xe4, 0x9e, 0x12, 0x00, 0x00,
   0x00, 0xe0, 0xff, 0xc3, 0xff, 0x83, 0xff, 0x3f, 0x03, 0x70, 0xff, 0xff,
   0xfc, 0x7f, 0x00, 0x00, 0x00, 0xe0, 0xff, 0x81, 0xff, 0x83, 0xff, 0x3f,
   0x03, 0x60, 0xf6, 0x7f, 0xfc, 0xff, 0x00, 0x00, 0x00, 0xe0, 0xd2, 0xc3,
   0x25, 0x81, 0x4b, 0xba, 0x03, 0x60, 0x27, 0x09, 0x20, 0xe9, 0x01, 0x00,
   0x00, 0xe0, 0x00, 0xc7, 0x01, 0x80, 0x01, 0x30, 0x03, 0x60, 0x07, 0x00,
   0x00, 0xc0, 0x01, 0x00, 0x00, 0xe0, 0x00, 0xcf, 0xff, 0x9f, 0x01, 0xb0,
   0xff, 0x7f, 0x06, 0x00, 0xfc, 0xff, 0x01, 0x00, 0x00, 0xe0, 0x00, 0x9c,
   0xff, 0xbf, 0x01, 0x30, 0xff, 0x3f, 0x07, 0x00, 0xfe, 0xff, 0x00, 0x00,
   0x00, 0x40, 0x00, 0x08, 0xff, 0x9f, 0x01, 0x30, 0xfc, 0x1f, 0x02, 0x00,
   0xfc, 0x3f, 0x00, 0x00, 0x00, 0x00, 0x00, 0x00, 0x00, 0x00, 0x00, 0x00,
   0x00, 0x00, 0x00, 0x00, 0x00, 0x00, 0x00, 0x00, 0x00, 0x00, 0x00, 0x00,
   0x00, 0x00, 0x00, 0x00, 0x00, 0x00, 0x00, 0x00, 0x00, 0x00, 0x00, 0x00,
   0x00, 0x00, 0x00, 0x00, 0x00, 0x00, 0x00, 0x00, 0x00, 0x00, 0x00, 0x00,
   0x00, 0x00, 0x00, 0x00, 0x00, 0x00, 0x00, 0x00, 0x00, 0x00, 0x00, 0x00,
   0x00, 0x00, 0x00, 0x00, 0x00, 0x00, 0x00, 0x00, 0x00, 0x00, 0x00, 0x00,
   0x00, 0x00, 0x00, 0x00, 0x00, 0x00, 0x00, 0x00, 0x00, 0x00, 0x00, 0x00,
   0x00, 0x00, 0x00, 0x00, 0x00, 0x00, 0x00, 0x00, 0x00, 0x00, 0x00, 0x00,
   0x00, 0x00, 0x00, 0x00, 0x00, 0x00, 0x00, 0x00, 0x00, 0x00, 0x00, 0x00,
   0x00, 0x00, 0x00, 0x00, 0x00, 0x00, 0x00, 0x00 };
